<?xml version="1.0" encoding="UTF-8"?>
            <svg width="18" height="18" viewBox="0 0 18 18" fill="none" xmlns="http://www.w3.org/2000/svg">
              <path d="M17.7049 8.85246C17.7049 3.96338 13.7415 0 8.85246 0C3.96338 0 0 3.96338 0 8.85246C0 13.271 3.23722 16.9333 7.46926 17.5974V11.4114H5.22157V8.85246H7.46926V6.90215C7.46926 4.6835 8.79087 3.45799 10.813 3.45799C11.7815 3.45799 12.7946 3.63089 12.7946 3.63089V5.80943H11.6783C10.5786 5.80943 10.2357 6.49181 10.2357 7.19188V8.85246H12.6908L12.2983 11.4114H10.2357V17.5974C14.4677 16.9333 17.7049 13.271 17.7049 8.85246Z" fill="black" />
              <path d="M12.2984 11.4114L12.6908 8.85248H10.2357V7.1919C10.2357 6.49183 10.5786 5.80944 11.6783 5.80944H12.7946V3.63091C12.7946 3.63091 11.7815 3.45801 10.813 3.45801C8.79088 3.45801 7.46927 4.68352 7.46927 6.90217V8.85248H5.22157V11.4114H7.46927V17.5974C7.91996 17.6681 8.3819 17.7049 8.85246 17.7049C9.32303 17.7049 9.78496 17.6681 10.2357 17.5974V11.4114H12.2984Z" fill="white" />
            </svg>
