<?xml version="1.0" encoding="UTF-8"?>
            <svg width="17" height="17" viewBox="0 0 17 17" fill="none" xmlns="http://www.w3.org/2000/svg">
              <path fill-rule="evenodd" clip-rule="evenodd" d="M4.90742 0.10261C3.5464 0.164019 2.36675 0.49677 1.4142 1.4453C0.458327 2.3988 0.129708 3.58313 0.0681464 4.92999C0.029878 5.77064 -0.193895 12.1215 0.455 13.7871C0.892589 14.9107 1.75443 15.7746 2.88834 16.2136C3.41744 16.4194 4.02143 16.5587 4.90742 16.5994C12.3156 16.9347 15.0618 16.7521 16.2198 13.7871C16.4253 13.2593 16.5667 12.6558 16.6058 11.772C16.9444 4.34479 16.5509 2.73489 15.2598 1.4453C14.2357 0.42374 13.0311 -0.271655 4.90742 0.10261ZM4.97562 15.1057C4.1645 15.0691 3.72442 14.934 3.43075 14.8203C2.69201 14.5332 2.13712 13.9806 1.85178 13.2462C1.35762 11.9806 1.52151 5.96995 1.5656 4.99735C1.60886 4.04467 1.80187 3.17399 2.47406 2.50181C3.30597 1.67195 4.3808 1.26524 11.6992 1.59553C12.6542 1.63868 13.5269 1.83128 14.2008 2.50181C15.0327 3.33166 15.4453 4.41476 15.1092 11.7051C15.0726 12.5142 14.937 12.9532 14.823 13.2462C14.0702 15.1756 12.3381 15.4434 4.97562 15.1057ZM11.7799 3.92083C11.7799 4.4702 12.2266 4.91693 12.7782 4.91693C13.3298 4.91693 13.7773 4.4702 13.7773 3.92083C13.7773 3.37147 13.3298 2.92515 12.7782 2.92515C12.2266 2.92515 11.7799 3.37147 11.7799 3.92083ZM4.06551 8.3506C4.06551 10.7041 5.97809 12.6122 8.33741 12.6122C10.6967 12.6122 12.6093 10.7041 12.6093 8.3506C12.6093 5.99712 10.6967 4.09025 8.33741 4.09025C5.97809 4.09025 4.06551 5.99712 4.06551 8.3506ZM5.56463 8.3506C5.56463 6.82366 6.80585 5.5848 8.33741 5.5848C9.86897 5.5848 11.1102 6.82366 11.1102 8.3506C11.1102 9.87836 9.86897 11.1176 8.33741 11.1176C6.80585 11.1176 5.56463 9.87836 5.56463 8.3506Z" fill="black" />
            </svg>
