<?xml version="1.0" encoding="UTF-8"?>
            <svg width="16" height="13" viewBox="0 0 16 13" fill="none" xmlns="http://www.w3.org/2000/svg">
              <path d="M14.1711 0.112886C14.1711 0.112886 15.6042 -0.440603 15.4847 0.903587C15.4449 1.45708 15.0867 3.39429 14.808 5.48966L13.8526 11.6967C13.8526 11.6967 13.773 12.606 13.0564 12.7641C12.3399 12.9222 11.2651 12.2106 11.066 12.0525C10.9068 11.9339 8.08038 10.1548 7.08514 9.28503C6.80648 9.04781 6.48801 8.57338 7.12494 8.01989L11.3049 4.06641C11.7826 3.59198 12.2603 2.485 10.2698 3.82919L4.69664 7.58503C4.69664 7.58503 4.0597 7.98036 2.86547 7.62456L0.277901 6.83386C0.277901 6.83386 -0.677505 6.24084 0.954646 5.64778C4.93551 3.78963 9.83195 1.89195 14.1711 0.112886Z" fill="black" />
            </svg>
