<?xml version="1.0" encoding="UTF-8"?>
            <svg width="15" height="17" viewBox="0 0 15 17" fill="none" xmlns="http://www.w3.org/2000/svg">
              <path d="M7.74899 0.014146C8.67587 5.37517e-08 9.59595 0.00735589 10.5155 0C10.546 1.14922 11.0126 2.18357 11.7549 2.94971L11.7538 2.94858C12.5527 3.66776 13.5922 4.13401 14.7382 4.21323L14.7541 4.21436V7.06392C13.6715 7.03676 12.6535 6.78723 11.7357 6.35832L11.7821 6.37756C11.3382 6.16424 10.9628 5.94526 10.6061 5.70082L10.6355 5.72006C10.6287 7.7848 10.6423 9.84954 10.6214 11.9069C10.563 12.9554 10.2143 13.9117 9.65484 14.7101L9.66616 14.6925C8.73079 16.0313 7.21562 16.9101 5.49265 16.9621H5.48473C5.41508 16.9655 5.33298 16.9672 5.25032 16.9672C4.27078 16.9672 3.35522 16.6945 2.57499 16.2209L2.59764 16.2339C1.17759 15.38 0.198054 13.919 0.0168683 12.2198L0.0146035 12.1966C0.000448324 11.843 -0.00634621 11.4893 0.00780897 11.143C0.28525 8.43891 2.55234 6.347 5.30807 6.347C5.61779 6.347 5.92127 6.3736 6.21627 6.42396L6.18456 6.41943C6.19871 7.46566 6.15625 8.51246 6.15625 9.5587C5.91674 9.47213 5.64043 9.42177 5.35224 9.42177C4.29456 9.42177 3.39486 10.0974 3.06193 11.0406L3.05683 11.0576C2.98153 11.2992 2.93793 11.577 2.93793 11.8645C2.93793 11.9811 2.94529 12.0965 2.95888 12.2097L2.95775 12.1961C3.14573 13.3538 4.13885 14.2274 5.33638 14.2274C5.37092 14.2274 5.40489 14.2269 5.43886 14.2252H5.43377C6.26213 14.2003 6.98121 13.755 7.38775 13.0969L7.39341 13.0867C7.54459 12.8762 7.6482 12.6216 7.68274 12.3449L7.68331 12.337C7.75409 11.0712 7.72577 9.81276 7.73257 8.54698C7.73936 5.69742 7.72577 2.85465 7.74672 0.0124485L7.74899 0.014146Z" fill="black" />
            </svg>
