<?xml version="1.0" encoding="UTF-8"?>
            <svg width="17" height="17" viewBox="0 0 17 17" fill="none" xmlns="http://www.w3.org/2000/svg">
              <path fill-rule="evenodd" clip-rule="evenodd" d="M13.2274 11.8062C13.0259 12.3765 12.225 12.8484 11.5862 12.9864C11.1489 13.0792 10.5787 13.1526 8.65746 12.3565C6.49957 11.4624 3.50312 8.27786 3.50312 6.15864C3.50312 5.07978 4.12515 3.82353 5.21287 3.82353C5.73625 3.82353 5.85162 3.83374 6.02385 4.24687C6.22535 4.73361 6.71695 5.93283 6.77548 6.05576C7.0171 6.56006 6.52967 6.85528 6.17601 7.29435C6.06314 7.42648 5.93523 7.56938 6.0782 7.81525C6.22033 8.05612 6.71193 8.85732 7.43429 9.50045C8.36734 10.3317 9.12398 10.5971 9.39487 10.71C9.59636 10.7937 9.83715 10.7742 9.9843 10.617C10.1707 10.4154 10.4023 10.081 10.6381 9.75151C10.8045 9.51567 11.016 9.48622 11.2376 9.56985C11.3872 9.6217 13.2893 10.505 13.3695 10.6464C13.4289 10.7492 13.4289 11.2358 13.2274 11.8062ZM8.36233 0H8.35814C3.74891 0 0 3.75005 0 8.36066C0 10.1888 0.589432 11.885 1.59187 13.2607L0.550135 16.3674L3.76314 15.3407C5.08496 16.2155 6.66261 16.7213 8.36233 16.7213C12.9716 16.7213 16.7213 12.9713 16.7213 8.36066C16.7213 3.75005 12.9716 0 8.36233 0Z" fill="black" />
            </svg>
